<?xml version="1.0" standalone="no"?>
<!DOCTYPE svg PUBLIC "-//W3C//DTD SVG 20010904//EN"
 "http://www.w3.org/TR/2001/REC-SVG-20010904/DTD/svg10.dtd">
<svg version="1.0" xmlns="http://www.w3.org/2000/svg"
 width="100.000000pt" height="100.000000pt" viewBox="0 0 100.000000 100.000000"
 preserveAspectRatio="xMidYMid meet">
<metadata>
Created by potrace 1.14, written by Peter Selinger 2001-2017
</metadata>
<g transform="translate(0.000000,100.000000) scale(0.100000,-0.100000)"
fill="#000000" stroke="none">
<path d="M413 948 c-6 -29 -18 -71 -26 -93 -13 -34 -16 -37 -22 -20 -24 68
-58 125 -76 125 -10 0 -19 -2 -19 -4 0 -2 16 -33 35 -70 36 -70 49 -119 21
-80 -11 14 -17 16 -26 7 -9 -8 -7 -18 10 -41 17 -23 21 -38 16 -59 -18 -69
-17 -91 0 -124 11 -19 24 -67 30 -106 10 -70 9 -73 -10 -79 -57 -17 -171 -101
-250 -186 -47 -50 -86 -97 -86 -104 0 -26 27 -14 86 39 59 53 243 181 250 174
2 -2 -54 -64 -126 -138 -122 -127 -150 -162 -136 -177 17 -16 91 49 186 164
137 167 159 182 275 190 73 5 97 11 128 32 20 14 39 23 41 21 5 -4 22 -51 61
-160 30 -86 83 -184 98 -184 7 0 11 7 10 15 -3 23 -23 100 -37 148 -8 23 -9
42 -4 42 11 0 49 -85 55 -125 8 -59 33 -133 48 -145 22 -19 44 3 25 24 -7 9
-16 63 -20 126 -11 147 -55 266 -119 323 -38 34 -40 55 -4 59 44 5 41 34 -6
58 -22 11 -44 19 -48 18 -5 -1 -23 6 -42 16 -36 19 -62 18 -165 -4 -55 -13
-61 -12 -70 5 -6 10 -24 34 -41 53 -29 34 -34 66 -14 87 14 14 11 45 -5 45 -8
0 -17 -7 -20 -16 -4 -9 -9 -15 -12 -12 -2 3 7 37 21 75 28 78 33 133 12 133
-8 0 -18 -21 -24 -52z m-29 -200 c3 -13 6 -34 6 -48 -1 -20 -2 -22 -10 -9 -14
23 -22 79 -11 79 5 0 11 -10 15 -22z m-10 -118 c8 0 22 10 31 23 l16 22 19
-23 c10 -13 17 -29 14 -36 -3 -8 4 -16 17 -19 32 -9 134 -1 157 12 12 6 30 11
41 11 23 0 81 -46 81 -65 0 -7 18 -35 41 -61 22 -27 49 -65 59 -84 23 -45 41
-110 30 -110 -27 0 -150 120 -150 147 0 5 -16 16 -35 25 -33 15 -36 14 -67 -8
-28 -21 -33 -22 -48 -9 -31 28 -42 15 -14 -17 l27 -33 -79 -5 c-75 -5 -80 -4
-101 20 -14 16 -24 45 -29 80 -4 30 -15 72 -25 95 -10 22 -18 49 -18 60 0 18
1 18 9 -2 5 -13 16 -23 24 -23z m-39 -272 c-11 -6 -33 -20 -49 -31 -16 -12
-26 -15 -22 -8 10 15 67 51 81 51 6 0 1 -6 -10 -12z m484 -96 c1 -7 -3 -10 -9
-7 -5 3 -10 18 -9 33 0 24 1 25 9 7 5 -11 9 -26 9 -33z m90 -10 c0 -24 -1 -25
-9 -7 -12 28 -12 47 0 40 6 -3 10 -18 9 -33z"/>
</g>
</svg>
